<svg xmlns="http://www.w3.org/2000/svg" width="37" height="50" viewBox="0 0 37 50">
  <g id="marker-blue" transform="translate(-201.36 -269.461)">
    <circle id="Ellipse_1" data-name="Ellipse 1" cx="18.5" cy="18.5" r="18.5" transform="translate(201.36 269.461)" fill="#2b90d9"/>
    <g id="Ellipse_2" data-name="Ellipse 2" transform="translate(203.36 271.461)" fill="none" stroke="#fff" stroke-width="1">
      <circle cx="16.5" cy="16.5" r="16.5" stroke="none"/>
      <circle cx="16.5" cy="16.5" r="16" fill="none"/>
    </g>
    <path id="Polygon_1" data-name="Polygon 1" d="M2.5,0,5,9H0Z" transform="translate(222.36 313.461) rotate(180)" fill="#2b90d9"/>
    <path id="Icon_awesome-map-marker-alt" data-name="Icon awesome-map-marker-alt" d="M4.955,14.43C.776,8.371,0,7.749,0,5.523a5.523,5.523,0,1,1,11.045,0c0,2.227-.776,2.848-4.955,8.907a.691.691,0,0,1-1.135,0Zm.568-6.606a2.3,2.3,0,1,0-2.3-2.3,2.3,2.3,0,0,0,2.3,2.3Z" transform="translate(214.499 281.186)" fill="#2b90d9"/>
    <ellipse id="Ellipse_3" data-name="Ellipse 3" cx="5.5" cy="1" rx="5.5" ry="1" transform="translate(214.36 317.461)" fill="#2b90d9"/>
  </g>
</svg>
