<svg xmlns="http://www.w3.org/2000/svg" xmlns:xlink="http://www.w3.org/1999/xlink" width="681" height="16" viewBox="0 0 681 16">
  <defs>
    <clipPath id="clip-path">
      <rect width="164" height="16" fill="none"/>
    </clipPath>
  </defs>
  <g id="separator-bottom" transform="translate(-415 -680)">
    <path id="Polygon_2" data-name="Polygon 2" d="M9.5,0,19,16H0Z" transform="translate(434 696) rotate(180)" fill="#f8f9fa"/>
    <path id="Polygon_2-2" data-name="Polygon 2" d="M9.5,0,19,16H0Z" transform="translate(453 696) rotate(180)" fill="#f8f9fa"/>
    <path id="Polygon_2-3" data-name="Polygon 2" d="M9.5,0,19,16H0Z" transform="translate(472 696) rotate(180)" fill="#f8f9fa"/>
    <path id="Polygon_2-4" data-name="Polygon 2" d="M9.5,0,19,16H0Z" transform="translate(491 696) rotate(180)" fill="#f8f9fa"/>
    <path id="Polygon_2-5" data-name="Polygon 2" d="M9.5,0,19,16H0Z" transform="translate(510 696) rotate(180)" fill="#f8f9fa"/>
    <path id="Polygon_2-6" data-name="Polygon 2" d="M9.5,0,19,16H0Z" transform="translate(526 696) rotate(180)" fill="#f8f9fa"/>
    <path id="Polygon_2-7" data-name="Polygon 2" d="M9.5,0,19,16H0Z" transform="translate(545 696) rotate(180)" fill="#f8f9fa"/>
    <path id="Polygon_2-8" data-name="Polygon 2" d="M9.5,0,19,16H0Z" transform="translate(563 696) rotate(180)" fill="#f8f9fa"/>
    <path id="Polygon_2-9" data-name="Polygon 2" d="M9.5,0,19,16H0Z" transform="translate(582 696) rotate(180)" fill="#f8f9fa"/>
    <path id="Polygon_2-10" data-name="Polygon 2" d="M9.5,0,19,16H0Z" transform="translate(600 696) rotate(180)" fill="#f8f9fa"/>
    <path id="Polygon_2-11" data-name="Polygon 2" d="M9.5,0,19,16H0Z" transform="translate(619 696) rotate(180)" fill="#f8f9fa"/>
    <path id="Polygon_2-12" data-name="Polygon 2" d="M9.5,0,19,16H0Z" transform="translate(637 696) rotate(180)" fill="#f8f9fa"/>
    <path id="Polygon_2-13" data-name="Polygon 2" d="M9.5,0,19,16H0Z" transform="translate(656 696) rotate(180)" fill="#f8f9fa"/>
    <path id="Polygon_2-14" data-name="Polygon 2" d="M9.5,0,19,16H0Z" transform="translate(674 696) rotate(180)" fill="#f8f9fa"/>
    <path id="Polygon_2-15" data-name="Polygon 2" d="M9.5,0,19,16H0Z" transform="translate(693 696) rotate(180)" fill="#f8f9fa"/>
    <path id="Polygon_2-16" data-name="Polygon 2" d="M9.5,0,19,16H0Z" transform="translate(711 696) rotate(180)" fill="#f8f9fa"/>
    <path id="Polygon_2-17" data-name="Polygon 2" d="M9.5,0,19,16H0Z" transform="translate(729 696) rotate(180)" fill="#f8f9fa"/>
    <path id="Polygon_2-18" data-name="Polygon 2" d="M9.5,0,19,16H0Z" transform="translate(748 696) rotate(180)" fill="#f8f9fa"/>
    <path id="Polygon_2-19" data-name="Polygon 2" d="M9.5,0,19,16H0Z" transform="translate(766 696) rotate(180)" fill="#f8f9fa"/>
    <path id="Polygon_2-20" data-name="Polygon 2" d="M9.5,0,19,16H0Z" transform="translate(785 696) rotate(180)" fill="#f8f9fa"/>
    <path id="Polygon_2-21" data-name="Polygon 2" d="M9.5,0,19,16H0Z" transform="translate(803 696) rotate(180)" fill="#f8f9fa"/>
    <path id="Polygon_2-22" data-name="Polygon 2" d="M9.5,0,19,16H0Z" transform="translate(822 696) rotate(180)" fill="#f8f9fa"/>
    <path id="Polygon_2-23" data-name="Polygon 2" d="M9.5,0,19,16H0Z" transform="translate(840 696) rotate(180)" fill="#f8f9fa"/>
    <path id="Polygon_2-24" data-name="Polygon 2" d="M9.5,0,19,16H0Z" transform="translate(859 696) rotate(180)" fill="#f8f9fa"/>
    <path id="Polygon_2-25" data-name="Polygon 2" d="M9.5,0,19,16H0Z" transform="translate(875 696) rotate(180)" fill="#f8f9fa"/>
    <path id="Polygon_2-26" data-name="Polygon 2" d="M9.5,0,19,16H0Z" transform="translate(894 696) rotate(180)" fill="#f8f9fa"/>
    <path id="Polygon_2-27" data-name="Polygon 2" d="M9.5,0,19,16H0Z" transform="translate(913 696) rotate(180)" fill="#f8f9fa"/>
    <path id="Polygon_2-28" data-name="Polygon 2" d="M9.5,0,19,16H0Z" transform="translate(932 696) rotate(180)" fill="#f8f9fa"/>
    <g id="Repeat_Grid_4" data-name="Repeat Grid 4" transform="translate(932 680)" clip-path="url(#clip-path)">
      <g transform="translate(-932 -680)">
        <path id="Polygon_2-29" data-name="Polygon 2" d="M9.5,0,19,16H0Z" transform="translate(951 696) rotate(180)" fill="#f8f9fa"/>
      </g>
      <g transform="translate(-913 -680)">
        <path id="Polygon_2-30" data-name="Polygon 2" d="M9.5,0,19,16H0Z" transform="translate(951 696) rotate(180)" fill="#f8f9fa"/>
      </g>
      <g transform="translate(-894 -680)">
        <path id="Polygon_2-31" data-name="Polygon 2" d="M9.5,0,19,16H0Z" transform="translate(951 696) rotate(180)" fill="#f8f9fa"/>
      </g>
      <g transform="translate(-875 -680)">
        <path id="Polygon_2-32" data-name="Polygon 2" d="M9.5,0,19,16H0Z" transform="translate(951 696) rotate(180)" fill="#f8f9fa"/>
      </g>
      <g transform="translate(-856 -680)">
        <path id="Polygon_2-33" data-name="Polygon 2" d="M9.5,0,19,16H0Z" transform="translate(951 696) rotate(180)" fill="#f8f9fa"/>
      </g>
      <g transform="translate(-837 -680)">
        <path id="Polygon_2-34" data-name="Polygon 2" d="M9.5,0,19,16H0Z" transform="translate(951 696) rotate(180)" fill="#f8f9fa"/>
      </g>
      <g transform="translate(-818 -680)">
        <path id="Polygon_2-35" data-name="Polygon 2" d="M9.5,0,19,16H0Z" transform="translate(951 696) rotate(180)" fill="#f8f9fa"/>
      </g>
      <g transform="translate(-799 -680)">
        <path id="Polygon_2-36" data-name="Polygon 2" d="M9.5,0,19,16H0Z" transform="translate(951 696) rotate(180)" fill="#f8f9fa"/>
      </g>
      <g transform="translate(-780 -680)">
        <path id="Polygon_2-37" data-name="Polygon 2" d="M9.5,0,19,16H0Z" transform="translate(951 696) rotate(180)" fill="#f8f9fa"/>
      </g>
    </g>
  </g>
</svg>
