<svg id="stats-1" xmlns="http://www.w3.org/2000/svg" width="28.578" height="45.172" viewBox="0 0 28.578 45.172">
  <path id="Path_53" data-name="Path 53" d="M129.4,249.6h0a6.265,6.265,0,0,0,6.266,6.266h.819a6.265,6.265,0,0,0,6.266-6.266H129.4Z" transform="translate(-128.138 -237.811)" fill="#fd8a06" opacity="0.5"/>
  <path id="Path_54" data-name="Path 54" d="M126.921,90.686a1.246,1.246,0,0,0-1.247,1.247v8.606h-4.192V91.247a1.247,1.247,0,1,0-2.495,0v9.292h-4.192V91.934a1.247,1.247,0,1,0-2.495,0v9.846a7.52,7.52,0,0,0,6.68,7.462v5.676h-2.259a1.246,1.246,0,0,0-1.247,1.247v14.252a4.746,4.746,0,0,0,9.492,0v-5.373a1.247,1.247,0,1,0-2.495,0v5.373a2.259,2.259,0,0,1-4.517,0v-13h4.524v3.447a1.247,1.247,0,1,0,2.495,0v-4.694a1.246,1.246,0,0,0-1.247-1.247h-2.259v-5.676a7.52,7.52,0,0,0,6.68-7.462V91.934A1.222,1.222,0,0,0,126.921,90.686ZM125.5,103.071c-.015.059-.037.125-.052.185-.007.03-.015.052-.022.074-.015.044-.03.1-.044.14s-.022.059-.03.081c-.015.044-.037.089-.052.133a.869.869,0,0,1-.037.081c-.022.044-.037.089-.059.133-.015.022-.022.052-.037.074-.03.052-.052.111-.081.162a.162.162,0,0,1-.022.037c-.037.066-.074.133-.111.192l-.044.066c-.03.044-.052.081-.081.125-.015.022-.037.052-.052.074a1.056,1.056,0,0,1-.081.111.518.518,0,0,1-.059.074c-.03.037-.059.074-.081.1s-.037.044-.059.066-.066.074-.1.111a.369.369,0,0,1-.052.059c-.052.052-.1.111-.155.162l-.044.044c-.037.037-.081.074-.118.111s-.044.037-.066.059-.066.059-.1.089a.644.644,0,0,1-.074.059.993.993,0,0,1-.1.081c-.022.022-.052.037-.074.059s-.074.052-.118.081l-.066.044c-.052.037-.1.066-.155.1-.007.007-.022.015-.03.022-.066.037-.125.074-.192.111-.022.015-.044.022-.066.037l-.133.066c-.03.015-.052.022-.081.037s-.081.037-.125.059a.869.869,0,0,0-.081.037c-.044.015-.089.037-.133.052s-.052.022-.081.03a1.272,1.272,0,0,1-.155.052l-.059.022c-.074.022-.148.044-.221.059-.015.007-.037.007-.052.015a1.4,1.4,0,0,1-.17.037c-.03.007-.052.007-.081.015a1.044,1.044,0,0,0-.148.03c-.03.007-.059.007-.089.015l-.148.022c-.03,0-.059.007-.089.007-.052.007-.111.007-.162.015-.022,0-.052.007-.074.007-.081.007-.162.007-.244.007h-.819c-.081,0-.162,0-.244-.007a.228.228,0,0,1-.074-.007,1.206,1.206,0,0,1-.162-.015c-.03,0-.059-.007-.089-.007l-.148-.022c-.03-.007-.059-.007-.089-.015a1.046,1.046,0,0,1-.148-.03c-.03-.007-.052-.007-.081-.015-.059-.015-.118-.022-.17-.037-.015-.007-.037-.007-.052-.015-.074-.022-.148-.037-.221-.066l-.059-.022c-.052-.015-.1-.037-.155-.052-.03-.007-.052-.022-.081-.03s-.089-.037-.133-.052a.865.865,0,0,1-.081-.037c-.044-.022-.089-.037-.125-.059s-.052-.022-.081-.037l-.133-.066c-.022-.015-.044-.022-.066-.037-.066-.037-.133-.074-.192-.111a.038.038,0,0,0-.03-.015c-.052-.037-.111-.066-.162-.1L117,105.9c-.037-.03-.081-.052-.118-.081l-.074-.052c-.037-.03-.074-.059-.1-.081a.646.646,0,0,0-.074-.059,1.283,1.283,0,0,1-.1-.089c-.022-.022-.044-.037-.066-.059a.893.893,0,0,1-.118-.118.2.2,0,0,0-.044-.037c-.052-.052-.1-.1-.155-.162-.015-.015-.03-.037-.044-.052-.037-.037-.066-.074-.1-.118a.406.406,0,0,1-.052-.066l-.089-.111a.448.448,0,0,1-.052-.074c-.03-.037-.052-.074-.081-.111s-.037-.052-.052-.074c-.03-.044-.052-.081-.081-.125a.3.3,0,0,1-.037-.066c-.037-.066-.074-.125-.111-.192-.007-.015-.015-.022-.022-.037a1.664,1.664,0,0,1-.081-.162c-.015-.022-.022-.052-.037-.074a1.046,1.046,0,0,1-.059-.133c-.015-.03-.022-.052-.037-.081s-.037-.089-.052-.133-.022-.059-.03-.081a1.075,1.075,0,0,0-.052-.14c-.007-.022-.015-.052-.022-.074a1.347,1.347,0,0,1-.052-.185c0-.015-.007-.022-.007-.037v-.007h10.554v.007C125.512,103.049,125.512,103.057,125.5,103.071Z" transform="translate(-112.3 -89.991)" fill="#fd8a06"/>
  <path id="Path_55" data-name="Path 55" d="M389.507,127.178h6.716v-8.03A14.612,14.612,0,0,0,390.3,107.4l-.8-.6.007,20.378Z" transform="translate(-369.041 -105.551)" fill="#fd8a06" opacity="0.5"/>
  <path id="Path_56" data-name="Path 56" d="M379.144,121.991a1.246,1.246,0,0,0,1.247-1.247V116.05a1.246,1.246,0,0,0-1.247-1.247h-2.259v-2.059H379a1.246,1.246,0,0,0,1.247-1.247v-8.023a15.94,15.94,0,0,0-6.421-12.754l-.8-.6a1.234,1.234,0,0,0-1.3-.111,1.249,1.249,0,0,0-.686,1.115V111.5a1.246,1.246,0,0,0,1.247,1.247h2.118V114.8h-2.259a1.246,1.246,0,0,0-1.247,1.247V130.3a4.746,4.746,0,1,0,9.492,0v-5.373a1.247,1.247,0,1,0-2.495,0V130.3a2.259,2.259,0,1,1-4.517,0v-13H377.9v3.447A1.24,1.24,0,0,0,379.144,121.991ZM373.52,93.716a13.445,13.445,0,0,1,4.229,9.765v6.776H373.52Z" transform="translate(-351.813 -89.876)" fill="#fd8a06"/>
</svg>
