<svg xmlns="http://www.w3.org/2000/svg" width="40.952" height="45.17" viewBox="0 0 40.952 45.17">
  <g id="stats-4-green" transform="translate(-0.004 0)">
    <path id="Path_65" data-name="Path 65" d="M306,253.2v12.651h12.651A12.647,12.647,0,0,0,306,253.2Z" transform="translate(-285.518 -241.155)" fill="#41d088" opacity="0.5"/>
    <path id="Path_66" data-name="Path 66" d="M68.164,113.4a1.288,1.288,0,0,0-1.292,1.292,17.9,17.9,0,1,1-7.012-14.208l-2.8,2.812a13.909,13.909,0,0,0-8.082-2.583,1.332,1.332,0,0,0-1.329,1.329V114.7a1.332,1.332,0,0,0,1.329,1.329H60.223a11.321,11.321,0,1,1-18.1-10.34,1.327,1.327,0,1,0-1.609-2.111,13.982,13.982,0,1,0,19.2,2.17L67.73,107.9a1.284,1.284,0,0,0,.332.044h.015a1.29,1.29,0,0,0,1.277-1.292,1.244,1.244,0,0,0-.066-.413l-2.628-9.8a1.294,1.294,0,0,0-2.163-.583l-2.8,2.8a20.436,20.436,0,0,0-11.425-4.384V92.583h1.565a1.292,1.292,0,1,0,0-2.583H46.125a1.292,1.292,0,0,0,0,2.583H47.69v1.675A20.476,20.476,0,1,0,69.456,114.7a1.288,1.288,0,0,0-1.292-1.3Zm-8.34-1.971c.007.022.015.044.022.074.037.133.074.266.111.406.007.022.007.044.015.066.037.14.066.28.1.421v.015c.03.14.052.28.081.428.007.022.007.052.015.074.022.14.044.273.059.413a.067.067,0,0,0,.007.037H50.31v-9.92a.067.067,0,0,1,.037.007c.14.015.28.037.421.059.022.007.044.007.074.015.148.022.288.052.428.081h.007c.14.03.288.059.428.1.022.007.037.007.059.015.14.037.273.074.406.111l.066.022c.133.044.273.081.406.133.015.007.022.007.037.015.133.044.266.1.4.148.007,0,.015.007.022.007.133.052.266.111.4.162l.059.022c.125.059.258.118.384.177l.044.022c.266.133.517.273.768.421a.162.162,0,0,1,.037.022c.118.074.244.148.362.229.015.007.03.022.044.03l.354.244c.007.007.015.007.015.015.118.089.236.17.354.266.007,0,.007.007.015.007.111.089.221.177.332.273.015.015.03.022.044.037.111.089.214.185.317.28l.03.03q.321.3.62.62l.03.03c.1.1.192.214.28.317.015.015.022.03.037.044.1.111.185.221.273.332,0,.007.007.007.007.015.089.118.177.229.266.354.007.007.007.015.015.015l.244.354a.321.321,0,0,1,.03.052c.074.118.155.236.221.362l.022.044c.148.251.288.5.421.768.007.015.015.037.022.052.059.125.118.251.177.384a.221.221,0,0,0,.03.059c.059.133.111.266.162.4,0,.007.007.015.007.03.052.133.1.266.148.4.007.015.007.03.015.044a1.669,1.669,0,0,1,.137.365Zm4.923-12.178,1.491,5.558-5.558-1.491Z" transform="translate(-28.5 -90)" fill="#41d088"/>
  </g>
</svg>
