<svg xmlns="http://www.w3.org/2000/svg" width="48.117" height="48.117" viewBox="0 0 48.117 48.117">
  <g id="no-smoking-pink" transform="translate(0.008 0.008)">
    <g id="Group_19" data-name="Group 19">
      <path id="Path_18" data-name="Path 18" d="M24.054,138.109a24.057,24.057,0,1,1,16.57-6.619,1.34,1.34,0,1,1-1.847-1.942,21.3,21.3,0,1,0-6.407,4.213,1.337,1.337,0,0,1,1.046,2.46,24,24,0,0,1-9.362,1.888Z" transform="translate(0 -90)" fill="#f54291"/>
      <path id="Path_19" data-name="Path 19" d="M94.943,244.337a4.143,4.143,0,0,1,0-8.286l5.448-.038a1.47,1.47,0,0,0,.008-2.94H97.875a1.337,1.337,0,1,1,0-2.673h2.531a4.143,4.143,0,1,1,0,8.286l-5.448.038a1.47,1.47,0,0,0-.008,2.94,1.337,1.337,0,0,1-.008,2.673Z" transform="translate(-83.662 -219.363)" fill="#f54291"/>
    </g>
    <path id="Path_20" data-name="Path 20" d="M102.055,396.708H130.7a1.859,1.859,0,0,0,1.855-1.855v-3.1A1.859,1.859,0,0,0,130.7,389.9H102.055a1.859,1.859,0,0,0-1.855,1.855v3.1a1.859,1.859,0,0,0,1.855,1.853Z" transform="translate(-92.323 -366.325)" fill="#f54291" opacity="0.5"/>
    <g id="Group_20" data-name="Group 20" transform="translate(6.54 6.646)">
      <path id="Path_21" data-name="Path 21" d="M115.037,382.38H86.392a3.194,3.194,0,0,1-3.192-3.192v-3.1a3.194,3.194,0,0,1,3.192-3.192h28.645a3.194,3.194,0,0,1,3.192,3.192v3.1A3.194,3.194,0,0,1,115.037,382.38Zm-28.645-6.808a.518.518,0,0,0-.519.519v3.1a.518.518,0,0,0,.519.519h28.645a.518.518,0,0,0,.519-.519v-3.1a.518.518,0,0,0-.519-.519Z" transform="translate(-83.2 -357.308)" fill="#f54291"/>
      <path id="Path_22" data-name="Path 22" d="M393.136,384.993a1.335,1.335,0,0,1-1.336-1.336v-6.32a1.336,1.336,0,1,1,2.673,0v6.312a1.332,1.332,0,0,1-1.337,1.344Z" transform="translate(-367.541 -360.164)" fill="#f54291"/>
      <path id="Path_23" data-name="Path 23" d="M86.082,526.689a1.327,1.327,0,0,1-.943-.393,1.348,1.348,0,0,1,0-1.9l5.062-5.062a1.34,1.34,0,0,1,1.894,1.894L87.034,526.3a1.373,1.373,0,0,1-.952.389Z" transform="translate(-84.628 -491.877)" fill="#f54291"/>
      <path id="Path_24" data-name="Path 24" d="M358.482,187.941a1.327,1.327,0,0,1-.943-.393,1.348,1.348,0,0,1,0-1.894l10.714-10.714a1.34,1.34,0,0,1,1.894,1.894l-10.722,10.722a1.332,1.332,0,0,1-.943.385Z" transform="translate(-335.615 -174.55)" fill="#f54291"/>
    </g>
  </g>
</svg>
