<svg xmlns="http://www.w3.org/2000/svg" width="1159" height="33.383" viewBox="0 0 1159 33.383">
  <g id="separator" transform="translate(-683.5 -552.5)">
    <g id="Group_150" data-name="Group 150" transform="translate(917 10)">
      <g id="separator-2" data-name="separator" transform="translate(-224 -24)">
        <g id="hero_separator" data-name="hero separator" transform="translate(0 566.5)">
          <g id="Group_83" data-name="Group 83" transform="translate(0 26.754)">
            <path id="Polygon_1" data-name="Polygon 1" d="M6.215,0l6.215,6.63H0Z" transform="translate(12.431 6.63) rotate(180)" fill="#f5f5f5"/>
            <path id="Polygon_1-2" data-name="Polygon 1" d="M6.215,0l6.215,6.63H0Z" transform="translate(24.033 6.63) rotate(180)" fill="#f5f5f5"/>
            <path id="Polygon_1-3" data-name="Polygon 1" d="M6.215,0l6.215,6.63H0Z" transform="translate(35.635 6.63) rotate(180)" fill="#f5f5f5"/>
            <path id="Polygon_1-4" data-name="Polygon 1" d="M6.215,0l6.215,6.63H0Z" transform="translate(47.237 6.63) rotate(180)" fill="#f5f5f5"/>
            <path id="Polygon_1-5" data-name="Polygon 1" d="M6.215,0l6.215,6.63H0Z" transform="translate(58.839 6.63) rotate(180)" fill="#f5f5f5"/>
            <path id="Polygon_1-6" data-name="Polygon 1" d="M6.215,0l6.215,6.63H0Z" transform="translate(70.441 6.63) rotate(180)" fill="#f5f5f5"/>
            <path id="Polygon_1-7" data-name="Polygon 1" d="M6.215,0l6.215,6.63H0Z" transform="translate(82.044 6.63) rotate(180)" fill="#f5f5f5"/>
            <path id="Polygon_1-8" data-name="Polygon 1" d="M6.215,0l6.215,6.63H0Z" transform="translate(93.646 6.63) rotate(180)" fill="#f5f5f5"/>
            <path id="Polygon_1-9" data-name="Polygon 1" d="M6.215,0l6.215,6.63H0Z" transform="translate(105.248 6.63) rotate(180)" fill="#f5f5f5"/>
            <path id="Polygon_1-10" data-name="Polygon 1" d="M6.215,0l6.215,6.63H0Z" transform="translate(116.85 6.63) rotate(180)" fill="#f5f5f5"/>
            <path id="Polygon_1-11" data-name="Polygon 1" d="M6.215,0l6.215,6.63H0Z" transform="translate(128.452 6.63) rotate(180)" fill="#f5f5f5"/>
            <path id="Polygon_1-12" data-name="Polygon 1" d="M6.215,0l6.215,6.63H0Z" transform="translate(140.054 6.63) rotate(180)" fill="#f5f5f5"/>
            <path id="Polygon_1-13" data-name="Polygon 1" d="M6.215,0l6.215,6.63H0Z" transform="translate(151.656 6.63) rotate(180)" fill="#f5f5f5"/>
            <path id="Polygon_1-14" data-name="Polygon 1" d="M6.215,0l6.215,6.63H0Z" transform="translate(163.258 6.63) rotate(180)" fill="#f5f5f5"/>
            <path id="Polygon_1-15" data-name="Polygon 1" d="M6.215,0l6.215,6.63H0Z" transform="translate(174.861 6.63) rotate(180)" fill="#f5f5f5"/>
            <path id="Polygon_1-16" data-name="Polygon 1" d="M6.215,0l6.215,6.63H0Z" transform="translate(186.463 6.63) rotate(180)" fill="#f5f5f5"/>
            <path id="Polygon_1-17" data-name="Polygon 1" d="M6.215,0l6.215,6.63H0Z" transform="translate(198.065 6.63) rotate(180)" fill="#f5f5f5"/>
            <path id="Polygon_1-18" data-name="Polygon 1" d="M6.215,0l6.215,6.63H0Z" transform="translate(209.667 6.63) rotate(180)" fill="#f5f5f5"/>
            <path id="Polygon_1-19" data-name="Polygon 1" d="M6.215,0l6.215,6.63H0Z" transform="translate(221.269 6.63) rotate(180)" fill="#f5f5f5"/>
            <path id="Polygon_1-20" data-name="Polygon 1" d="M6.215,0l6.215,6.63H0Z" transform="translate(233.303 6.63) rotate(180)" fill="#f5f5f5"/>
            <path id="Polygon_1-21" data-name="Polygon 1" d="M6.215,0l6.215,6.63H0Z" transform="translate(244.927 6.63) rotate(180)" fill="#f5f5f5"/>
            <path id="Polygon_1-22" data-name="Polygon 1" d="M6.215,0l6.215,6.63H0Z" transform="translate(256.552 6.63) rotate(180)" fill="#f5f5f5"/>
            <path id="Polygon_1-23" data-name="Polygon 1" d="M6.215,0l6.215,6.63H0Z" transform="translate(268.177 6.63) rotate(180)" fill="#f5f5f5"/>
            <path id="Polygon_1-24" data-name="Polygon 1" d="M6.215,0l6.215,6.63H0Z" transform="translate(279.802 6.63) rotate(180)" fill="#f5f5f5"/>
            <path id="Polygon_1-25" data-name="Polygon 1" d="M6.215,0l6.215,6.63H0Z" transform="translate(291.427 6.63) rotate(180)" fill="#f5f5f5"/>
            <path id="Polygon_1-26" data-name="Polygon 1" d="M6.215,0l6.215,6.63H0Z" transform="translate(303.051 6.63) rotate(180)" fill="#f5f5f5"/>
            <path id="Polygon_1-27" data-name="Polygon 1" d="M6.215,0l6.215,6.63H0Z" transform="translate(314.676 6.63) rotate(180)" fill="#f5f5f5"/>
            <path id="Polygon_1-28" data-name="Polygon 1" d="M6.215,0l6.215,6.63H0Z" transform="translate(326.301 6.63) rotate(180)" fill="#f5f5f5"/>
            <path id="Polygon_1-29" data-name="Polygon 1" d="M6.215,0l6.215,6.63H0Z" transform="translate(337.926 6.63) rotate(180)" fill="#f5f5f5"/>
            <path id="Polygon_1-30" data-name="Polygon 1" d="M6.215,0l6.215,6.63H0Z" transform="translate(349.551 6.63) rotate(180)" fill="#f5f5f5"/>
            <path id="Polygon_1-31" data-name="Polygon 1" d="M6.215,0l6.215,6.63H0Z" transform="translate(361.176 6.63) rotate(180)" fill="#f5f5f5"/>
            <path id="Polygon_1-32" data-name="Polygon 1" d="M6.215,0l6.215,6.63H0Z" transform="translate(372.8 6.63) rotate(180)" fill="#f5f5f5"/>
            <path id="Polygon_1-33" data-name="Polygon 1" d="M6.215,0l6.215,6.63H0Z" transform="translate(384.425 6.63) rotate(180)" fill="#f5f5f5"/>
            <path id="Polygon_1-34" data-name="Polygon 1" d="M6.215,0l6.215,6.63H0Z" transform="translate(396.05 6.63) rotate(180)" fill="#f5f5f5"/>
            <path id="Polygon_1-35" data-name="Polygon 1" d="M6.215,0l6.215,6.63H0Z" transform="translate(407.675 6.63) rotate(180)" fill="#f5f5f5"/>
            <path id="Polygon_1-36" data-name="Polygon 1" d="M6.215,0l6.215,6.63H0Z" transform="translate(419.3 6.63) rotate(180)" fill="#f5f5f5"/>
            <path id="Polygon_1-37" data-name="Polygon 1" d="M6.215,0l6.215,6.63H0Z" transform="translate(430.925 6.63) rotate(180)" fill="#f5f5f5"/>
            <path id="Polygon_1-38" data-name="Polygon 1" d="M6.215,0l6.215,6.63H0Z" transform="translate(442.549 6.63) rotate(180)" fill="#f5f5f5"/>
            <path id="Polygon_1-39" data-name="Polygon 1" d="M6.215,0l6.215,6.63H0Z" transform="translate(454.174 6.63) rotate(180)" fill="#f5f5f5"/>
            <path id="Polygon_1-40" data-name="Polygon 1" d="M6.215,0l6.215,6.63H0Z" transform="translate(465.799 6.63) rotate(180)" fill="#f5f5f5"/>
            <path id="Polygon_1-41" data-name="Polygon 1" d="M6.215,0l6.215,6.63H0Z" transform="translate(477.424 6.63) rotate(180)" fill="#f5f5f5"/>
            <path id="Polygon_1-42" data-name="Polygon 1" d="M6.215,0l6.215,6.63H0Z" transform="translate(489.049 6.63) rotate(180)" fill="#f5f5f5"/>
            <path id="Polygon_1-43" data-name="Polygon 1" d="M6.215,0l6.215,6.63H0Z" transform="translate(500.674 6.63) rotate(180)" fill="#f5f5f5"/>
            <path id="Polygon_1-44" data-name="Polygon 1" d="M6.215,0l6.215,6.63H0Z" transform="translate(512.298 6.63) rotate(180)" fill="#f5f5f5"/>
            <path id="Polygon_1-45" data-name="Polygon 1" d="M6.215,0l6.215,6.63H0Z" transform="translate(523.923 6.63) rotate(180)" fill="#f5f5f5"/>
            <path id="Polygon_1-46" data-name="Polygon 1" d="M6.215,0l6.215,6.63H0Z" transform="translate(535.548 6.63) rotate(180)" fill="#f5f5f5"/>
            <path id="Polygon_1-47" data-name="Polygon 1" d="M6.215,0l6.215,6.63H0Z" transform="translate(547.173 6.63) rotate(180)" fill="#f5f5f5"/>
            <path id="Polygon_1-48" data-name="Polygon 1" d="M6.215,0l6.215,6.63H0Z" transform="translate(558.798 6.63) rotate(180)" fill="#f5f5f5"/>
            <path id="Polygon_1-49" data-name="Polygon 1" d="M6.215,0l6.215,6.63H0Z" transform="translate(570.422 6.63) rotate(180)" fill="#f5f5f5"/>
            <path id="Polygon_1-50" data-name="Polygon 1" d="M6.215,0l6.215,6.63H0Z" transform="translate(582.047 6.63) rotate(180)" fill="#f5f5f5"/>
            <path id="Polygon_1-51" data-name="Polygon 1" d="M6.215,0l6.215,6.63H0Z" transform="translate(593.672 6.63) rotate(180)" fill="#f5f5f5"/>
            <path id="Polygon_1-52" data-name="Polygon 1" d="M6.215,0l6.215,6.63H0Z" transform="translate(605.297 6.63) rotate(180)" fill="#f5f5f5"/>
            <path id="Polygon_1-53" data-name="Polygon 1" d="M6.215,0l6.215,6.63H0Z" transform="translate(616.922 6.63) rotate(180)" fill="#f5f5f5"/>
            <path id="Polygon_1-54" data-name="Polygon 1" d="M6.215,0l6.215,6.63H0Z" transform="translate(628.547 6.63) rotate(180)" fill="#f5f5f5"/>
            <path id="Polygon_1-55" data-name="Polygon 1" d="M6.215,0l6.215,6.63H0Z" transform="translate(640.172 6.63) rotate(180)" fill="#f5f5f5"/>
            <path id="Polygon_1-56" data-name="Polygon 1" d="M6.215,0l6.215,6.63H0Z" transform="translate(651.796 6.63) rotate(180)" fill="#f5f5f5"/>
            <path id="Polygon_1-57" data-name="Polygon 1" d="M6.215,0l6.215,6.63H0Z" transform="translate(663.421 6.63) rotate(180)" fill="#f5f5f5"/>
            <path id="Polygon_1-58" data-name="Polygon 1" d="M6.215,0l6.215,6.63H0Z" transform="translate(675.046 6.63) rotate(180)" fill="#f5f5f5"/>
            <path id="Polygon_1-59" data-name="Polygon 1" d="M6.215,0l6.215,6.63H0Z" transform="translate(686.671 6.63) rotate(180)" fill="#f5f5f5"/>
            <path id="Polygon_1-60" data-name="Polygon 1" d="M6.215,0l6.215,6.63H0Z" transform="translate(698.296 6.63) rotate(180)" fill="#f5f5f5"/>
            <path id="Polygon_1-61" data-name="Polygon 1" d="M6.215,0l6.215,6.63H0Z" transform="translate(709.92 6.63) rotate(180)" fill="#f5f5f5"/>
            <path id="Polygon_1-62" data-name="Polygon 1" d="M6.215,0l6.215,6.63H0Z" transform="translate(721.545 6.63) rotate(180)" fill="#f5f5f5"/>
            <path id="Polygon_1-63" data-name="Polygon 1" d="M6.215,0l6.215,6.63H0Z" transform="translate(733.17 6.63) rotate(180)" fill="#f5f5f5"/>
            <path id="Polygon_1-64" data-name="Polygon 1" d="M6.215,0l6.215,6.63H0Z" transform="translate(744.795 6.63) rotate(180)" fill="#f5f5f5"/>
            <path id="Polygon_1-65" data-name="Polygon 1" d="M6.215,0l6.215,6.63H0Z" transform="translate(756.42 6.63) rotate(180)" fill="#f5f5f5"/>
            <path id="Polygon_1-66" data-name="Polygon 1" d="M6.215,0l6.215,6.63H0Z" transform="translate(768.045 6.63) rotate(180)" fill="#f5f5f5"/>
            <path id="Polygon_1-67" data-name="Polygon 1" d="M6.215,0l6.215,6.63H0Z" transform="translate(779.669 6.63) rotate(180)" fill="#f5f5f5"/>
            <path id="Polygon_1-68" data-name="Polygon 1" d="M6.215,0l6.215,6.63H0Z" transform="translate(791.294 6.63) rotate(180)" fill="#f5f5f5"/>
            <path id="Polygon_1-69" data-name="Polygon 1" d="M6.215,0l6.215,6.63H0Z" transform="translate(802.919 6.63) rotate(180)" fill="#f5f5f5"/>
            <path id="Polygon_1-70" data-name="Polygon 1" d="M6.215,0l6.215,6.63H0Z" transform="translate(814.544 6.63) rotate(180)" fill="#f5f5f5"/>
            <path id="Polygon_1-71" data-name="Polygon 1" d="M6.215,0l6.215,6.63H0Z" transform="translate(826.169 6.63) rotate(180)" fill="#f5f5f5"/>
            <path id="Polygon_1-72" data-name="Polygon 1" d="M6.215,0l6.215,6.63H0Z" transform="translate(837.793 6.63) rotate(180)" fill="#f5f5f5"/>
            <path id="Polygon_1-73" data-name="Polygon 1" d="M6.215,0l6.215,6.63H0Z" transform="translate(849.418 6.63) rotate(180)" fill="#f5f5f5"/>
            <path id="Polygon_1-74" data-name="Polygon 1" d="M6.215,0l6.215,6.63H0Z" transform="translate(861.043 6.63) rotate(180)" fill="#f5f5f5"/>
            <path id="Polygon_1-75" data-name="Polygon 1" d="M6.215,0l6.215,6.63H0Z" transform="translate(872.668 6.63) rotate(180)" fill="#f5f5f5"/>
            <path id="Polygon_1-76" data-name="Polygon 1" d="M6.215,0l6.215,6.63H0Z" transform="translate(884.293 6.63) rotate(180)" fill="#f5f5f5"/>
            <path id="Polygon_1-77" data-name="Polygon 1" d="M6.215,0l6.215,6.63H0Z" transform="translate(895.918 6.63) rotate(180)" fill="#f5f5f5"/>
            <path id="Polygon_1-78" data-name="Polygon 1" d="M6.215,0l6.215,6.63H0Z" transform="translate(907.542 6.63) rotate(180)" fill="#f5f5f5"/>
            <path id="Polygon_1-79" data-name="Polygon 1" d="M6.215,0l6.215,6.63H0Z" transform="translate(919.167 6.63) rotate(180)" fill="#f5f5f5"/>
            <path id="Polygon_1-80" data-name="Polygon 1" d="M6.215,0l6.215,6.63H0Z" transform="translate(931.201 6.63) rotate(180)" fill="#f5f5f5"/>
            <path id="Polygon_1-81" data-name="Polygon 1" d="M6.215,0l6.215,6.63H0Z" transform="translate(942.803 6.63) rotate(180)" fill="#f5f5f5"/>
            <path id="Polygon_1-82" data-name="Polygon 1" d="M6.215,0l6.215,6.63H0Z" transform="translate(954.405 6.63) rotate(180)" fill="#f5f5f5"/>
            <path id="Polygon_1-83" data-name="Polygon 1" d="M6.215,0l6.215,6.63H0Z" transform="translate(966.007 6.63) rotate(180)" fill="#f5f5f5"/>
            <path id="Polygon_1-84" data-name="Polygon 1" d="M6.215,0l6.215,6.63H0Z" transform="translate(977.609 6.63) rotate(180)" fill="#f5f5f5"/>
            <path id="Polygon_1-85" data-name="Polygon 1" d="M6.215,0l6.215,6.63H0Z" transform="translate(989.211 6.63) rotate(180)" fill="#f5f5f5"/>
            <path id="Polygon_1-86" data-name="Polygon 1" d="M6.215,0l6.215,6.63H0Z" transform="translate(1000.813 6.63) rotate(180)" fill="#f5f5f5"/>
            <path id="Polygon_1-87" data-name="Polygon 1" d="M6.215,0l6.215,6.63H0Z" transform="translate(1012.416 6.63) rotate(180)" fill="#f5f5f5"/>
            <path id="Polygon_1-88" data-name="Polygon 1" d="M6.215,0l6.215,6.63H0Z" transform="translate(1024.018 6.63) rotate(180)" fill="#f5f5f5"/>
            <path id="Polygon_1-89" data-name="Polygon 1" d="M6.215,0l6.215,6.63H0Z" transform="translate(1035.62 6.63) rotate(180)" fill="#f5f5f5"/>
            <path id="Polygon_1-90" data-name="Polygon 1" d="M6.215,0l6.215,6.63H0Z" transform="translate(1047.222 6.63) rotate(180)" fill="#f5f5f5"/>
            <path id="Polygon_1-91" data-name="Polygon 1" d="M6.215,0l6.215,6.63H0Z" transform="translate(1058.824 6.63) rotate(180)" fill="#f5f5f5"/>
            <path id="Polygon_1-92" data-name="Polygon 1" d="M6.215,0l6.215,6.63H0Z" transform="translate(1070.427 6.63) rotate(180)" fill="#f5f5f5"/>
            <path id="Polygon_1-93" data-name="Polygon 1" d="M6.215,0l6.215,6.63H0Z" transform="translate(1082.029 6.63) rotate(180)" fill="#f5f5f5"/>
            <path id="Polygon_1-94" data-name="Polygon 1" d="M6.215,0l6.215,6.63H0Z" transform="translate(1093.631 6.63) rotate(180)" fill="#f5f5f5"/>
            <path id="Polygon_1-95" data-name="Polygon 1" d="M6.215,0l6.215,6.63H0Z" transform="translate(1105.233 6.63) rotate(180)" fill="#f5f5f5"/>
            <path id="Polygon_1-96" data-name="Polygon 1" d="M6.215,0l6.215,6.63H0Z" transform="translate(1116.835 6.63) rotate(180)" fill="#f5f5f5"/>
            <path id="Polygon_1-97" data-name="Polygon 1" d="M6.215,0l6.215,6.63H0Z" transform="translate(1128.437 6.63) rotate(180)" fill="#f5f5f5"/>
            <path id="Polygon_1-98" data-name="Polygon 1" d="M6.215,0l6.215,6.63H0Z" transform="translate(1140.039 6.63) rotate(180)" fill="#f5f5f5"/>
          </g>
          <g id="divider">
            <path id="Polygon_1-99" data-name="Polygon 1" d="M6.215,0l6.215,6.63H0Z" fill="#f5f5f5"/>
            <path id="Polygon_1-100" data-name="Polygon 1" d="M6.215,0l6.215,6.63H0Z" transform="translate(11.602)" fill="#f5f5f5"/>
            <path id="Polygon_1-101" data-name="Polygon 1" d="M6.215,0l6.215,6.63H0Z" transform="translate(23.204)" fill="#f5f5f5"/>
            <path id="Polygon_1-102" data-name="Polygon 1" d="M6.215,0l6.215,6.63H0Z" transform="translate(34.806)" fill="#f5f5f5"/>
            <path id="Polygon_1-103" data-name="Polygon 1" d="M6.215,0l6.215,6.63H0Z" transform="translate(46.408)" fill="#f5f5f5"/>
            <path id="Polygon_1-104" data-name="Polygon 1" d="M6.215,0l6.215,6.63H0Z" transform="translate(58.011)" fill="#f5f5f5"/>
            <path id="Polygon_1-105" data-name="Polygon 1" d="M6.215,0l6.215,6.63H0Z" transform="translate(69.613)" fill="#f5f5f5"/>
            <path id="Polygon_1-106" data-name="Polygon 1" d="M6.215,0l6.215,6.63H0Z" transform="translate(81.215)" fill="#f5f5f5"/>
            <path id="Polygon_1-107" data-name="Polygon 1" d="M6.215,0l6.215,6.63H0Z" transform="translate(92.817)" fill="#f5f5f5"/>
            <path id="Polygon_1-108" data-name="Polygon 1" d="M6.215,0l6.215,6.63H0Z" transform="translate(104.419)" fill="#f5f5f5"/>
            <path id="Polygon_1-109" data-name="Polygon 1" d="M6.215,0l6.215,6.63H0Z" transform="translate(116.021)" fill="#f5f5f5"/>
            <path id="Polygon_1-110" data-name="Polygon 1" d="M6.215,0l6.215,6.63H0Z" transform="translate(127.623)" fill="#f5f5f5"/>
            <path id="Polygon_1-111" data-name="Polygon 1" d="M6.215,0l6.215,6.63H0Z" transform="translate(139.225)" fill="#f5f5f5"/>
            <path id="Polygon_1-112" data-name="Polygon 1" d="M6.215,0l6.215,6.63H0Z" transform="translate(150.828)" fill="#f5f5f5"/>
            <path id="Polygon_1-113" data-name="Polygon 1" d="M6.215,0l6.215,6.63H0Z" transform="translate(162.43)" fill="#f5f5f5"/>
            <path id="Polygon_1-114" data-name="Polygon 1" d="M6.215,0l6.215,6.63H0Z" transform="translate(174.032)" fill="#f5f5f5"/>
            <path id="Polygon_1-115" data-name="Polygon 1" d="M6.215,0l6.215,6.63H0Z" transform="translate(185.634)" fill="#f5f5f5"/>
            <path id="Polygon_1-116" data-name="Polygon 1" d="M6.215,0l6.215,6.63H0Z" transform="translate(197.236)" fill="#f5f5f5"/>
            <path id="Polygon_1-117" data-name="Polygon 1" d="M6.215,0l6.215,6.63H0Z" transform="translate(208.838)" fill="#f5f5f5"/>
            <path id="Polygon_1-118" data-name="Polygon 1" d="M6.215,0l6.215,6.63H0Z" transform="translate(220.872)" fill="#f5f5f5"/>
            <path id="Polygon_1-119" data-name="Polygon 1" d="M6.215,0l6.215,6.63H0Z" transform="translate(232.497)" fill="#f5f5f5"/>
            <path id="Polygon_1-120" data-name="Polygon 1" d="M6.215,0l6.215,6.63H0Z" transform="translate(244.121)" fill="#f5f5f5"/>
            <path id="Polygon_1-121" data-name="Polygon 1" d="M6.215,0l6.215,6.63H0Z" transform="translate(255.746)" fill="#f5f5f5"/>
            <path id="Polygon_1-122" data-name="Polygon 1" d="M6.215,0l6.215,6.63H0Z" transform="translate(267.371)" fill="#f5f5f5"/>
            <path id="Polygon_1-123" data-name="Polygon 1" d="M6.215,0l6.215,6.63H0Z" transform="translate(278.996)" fill="#f5f5f5"/>
            <path id="Polygon_1-124" data-name="Polygon 1" d="M6.215,0l6.215,6.63H0Z" transform="translate(290.621)" fill="#f5f5f5"/>
            <path id="Polygon_1-125" data-name="Polygon 1" d="M6.215,0l6.215,6.63H0Z" transform="translate(302.245)" fill="#f5f5f5"/>
            <path id="Polygon_1-126" data-name="Polygon 1" d="M6.215,0l6.215,6.63H0Z" transform="translate(313.87)" fill="#f5f5f5"/>
            <path id="Polygon_1-127" data-name="Polygon 1" d="M6.215,0l6.215,6.63H0Z" transform="translate(325.495)" fill="#f5f5f5"/>
            <path id="Polygon_1-128" data-name="Polygon 1" d="M6.215,0l6.215,6.63H0Z" transform="translate(337.12)" fill="#f5f5f5"/>
            <path id="Polygon_1-129" data-name="Polygon 1" d="M6.215,0l6.215,6.63H0Z" transform="translate(348.745)" fill="#f5f5f5"/>
            <path id="Polygon_1-130" data-name="Polygon 1" d="M6.215,0l6.215,6.63H0Z" transform="translate(360.37)" fill="#f5f5f5"/>
            <path id="Polygon_1-131" data-name="Polygon 1" d="M6.215,0l6.215,6.63H0Z" transform="translate(371.994)" fill="#f5f5f5"/>
            <path id="Polygon_1-132" data-name="Polygon 1" d="M6.215,0l6.215,6.63H0Z" transform="translate(383.619)" fill="#f5f5f5"/>
            <path id="Polygon_1-133" data-name="Polygon 1" d="M6.215,0l6.215,6.63H0Z" transform="translate(395.244)" fill="#f5f5f5"/>
            <path id="Polygon_1-134" data-name="Polygon 1" d="M6.215,0l6.215,6.63H0Z" transform="translate(406.869)" fill="#f5f5f5"/>
            <path id="Polygon_1-135" data-name="Polygon 1" d="M6.215,0l6.215,6.63H0Z" transform="translate(418.494)" fill="#f5f5f5"/>
            <path id="Polygon_1-136" data-name="Polygon 1" d="M6.215,0l6.215,6.63H0Z" transform="translate(430.119)" fill="#f5f5f5"/>
            <path id="Polygon_1-137" data-name="Polygon 1" d="M6.215,0l6.215,6.63H0Z" transform="translate(441.743)" fill="#f5f5f5"/>
            <path id="Polygon_1-138" data-name="Polygon 1" d="M6.215,0l6.215,6.63H0Z" transform="translate(453.368)" fill="#f5f5f5"/>
            <path id="Polygon_1-139" data-name="Polygon 1" d="M6.215,0l6.215,6.63H0Z" transform="translate(464.993)" fill="#f5f5f5"/>
            <path id="Polygon_1-140" data-name="Polygon 1" d="M6.215,0l6.215,6.63H0Z" transform="translate(476.618)" fill="#f5f5f5"/>
            <path id="Polygon_1-141" data-name="Polygon 1" d="M6.215,0l6.215,6.63H0Z" transform="translate(488.243)" fill="#f5f5f5"/>
            <path id="Polygon_1-142" data-name="Polygon 1" d="M6.215,0l6.215,6.63H0Z" transform="translate(499.868)" fill="#f5f5f5"/>
            <path id="Polygon_1-143" data-name="Polygon 1" d="M6.215,0l6.215,6.63H0Z" transform="translate(511.492)" fill="#f5f5f5"/>
            <path id="Polygon_1-144" data-name="Polygon 1" d="M6.215,0l6.215,6.63H0Z" transform="translate(523.117)" fill="#f5f5f5"/>
            <path id="Polygon_1-145" data-name="Polygon 1" d="M6.215,0l6.215,6.63H0Z" transform="translate(534.742)" fill="#f5f5f5"/>
            <path id="Polygon_1-146" data-name="Polygon 1" d="M6.215,0l6.215,6.63H0Z" transform="translate(546.367)" fill="#f5f5f5"/>
            <path id="Polygon_1-147" data-name="Polygon 1" d="M6.215,0l6.215,6.63H0Z" transform="translate(557.992)" fill="#f5f5f5"/>
            <path id="Polygon_1-148" data-name="Polygon 1" d="M6.215,0l6.215,6.63H0Z" transform="translate(569.616)" fill="#f5f5f5"/>
            <path id="Polygon_1-149" data-name="Polygon 1" d="M6.215,0l6.215,6.63H0Z" transform="translate(581.241)" fill="#f5f5f5"/>
            <path id="Polygon_1-150" data-name="Polygon 1" d="M6.215,0l6.215,6.63H0Z" transform="translate(592.866)" fill="#f5f5f5"/>
            <path id="Polygon_1-151" data-name="Polygon 1" d="M6.215,0l6.215,6.63H0Z" transform="translate(604.491)" fill="#f5f5f5"/>
            <path id="Polygon_1-152" data-name="Polygon 1" d="M6.215,0l6.215,6.63H0Z" transform="translate(616.116)" fill="#f5f5f5"/>
            <path id="Polygon_1-153" data-name="Polygon 1" d="M6.215,0l6.215,6.63H0Z" transform="translate(627.741)" fill="#f5f5f5"/>
            <path id="Polygon_1-154" data-name="Polygon 1" d="M6.215,0l6.215,6.63H0Z" transform="translate(639.365)" fill="#f5f5f5"/>
            <path id="Polygon_1-155" data-name="Polygon 1" d="M6.215,0l6.215,6.63H0Z" transform="translate(650.99)" fill="#f5f5f5"/>
            <path id="Polygon_1-156" data-name="Polygon 1" d="M6.215,0l6.215,6.63H0Z" transform="translate(662.615)" fill="#f5f5f5"/>
            <path id="Polygon_1-157" data-name="Polygon 1" d="M6.215,0l6.215,6.63H0Z" transform="translate(674.24)" fill="#f5f5f5"/>
            <path id="Polygon_1-158" data-name="Polygon 1" d="M6.215,0l6.215,6.63H0Z" transform="translate(685.865)" fill="#f5f5f5"/>
            <path id="Polygon_1-159" data-name="Polygon 1" d="M6.215,0l6.215,6.63H0Z" transform="translate(697.49)" fill="#f5f5f5"/>
            <path id="Polygon_1-160" data-name="Polygon 1" d="M6.215,0l6.215,6.63H0Z" transform="translate(709.114)" fill="#f5f5f5"/>
            <path id="Polygon_1-161" data-name="Polygon 1" d="M6.215,0l6.215,6.63H0Z" transform="translate(720.739)" fill="#f5f5f5"/>
            <path id="Polygon_1-162" data-name="Polygon 1" d="M6.215,0l6.215,6.63H0Z" transform="translate(732.364)" fill="#f5f5f5"/>
            <path id="Polygon_1-163" data-name="Polygon 1" d="M6.215,0l6.215,6.63H0Z" transform="translate(743.989)" fill="#f5f5f5"/>
            <path id="Polygon_1-164" data-name="Polygon 1" d="M6.215,0l6.215,6.63H0Z" transform="translate(755.614)" fill="#f5f5f5"/>
            <path id="Polygon_1-165" data-name="Polygon 1" d="M6.215,0l6.215,6.63H0Z" transform="translate(767.238)" fill="#f5f5f5"/>
            <path id="Polygon_1-166" data-name="Polygon 1" d="M6.215,0l6.215,6.63H0Z" transform="translate(778.863)" fill="#f5f5f5"/>
            <path id="Polygon_1-167" data-name="Polygon 1" d="M6.215,0l6.215,6.63H0Z" transform="translate(790.488)" fill="#f5f5f5"/>
            <path id="Polygon_1-168" data-name="Polygon 1" d="M6.215,0l6.215,6.63H0Z" transform="translate(802.113)" fill="#f5f5f5"/>
            <path id="Polygon_1-169" data-name="Polygon 1" d="M6.215,0l6.215,6.63H0Z" transform="translate(813.738)" fill="#f5f5f5"/>
            <path id="Polygon_1-170" data-name="Polygon 1" d="M6.215,0l6.215,6.63H0Z" transform="translate(825.363)" fill="#f5f5f5"/>
            <path id="Polygon_1-171" data-name="Polygon 1" d="M6.215,0l6.215,6.63H0Z" transform="translate(836.988)" fill="#f5f5f5"/>
            <path id="Polygon_1-172" data-name="Polygon 1" d="M6.215,0l6.215,6.63H0Z" transform="translate(848.612)" fill="#f5f5f5"/>
            <path id="Polygon_1-173" data-name="Polygon 1" d="M6.215,0l6.215,6.63H0Z" transform="translate(860.237)" fill="#f5f5f5"/>
            <path id="Polygon_1-174" data-name="Polygon 1" d="M6.215,0l6.215,6.63H0Z" transform="translate(871.862)" fill="#f5f5f5"/>
            <path id="Polygon_1-175" data-name="Polygon 1" d="M6.215,0l6.215,6.63H0Z" transform="translate(883.487)" fill="#f5f5f5"/>
            <path id="Polygon_1-176" data-name="Polygon 1" d="M6.215,0l6.215,6.63H0Z" transform="translate(895.112)" fill="#f5f5f5"/>
            <path id="Polygon_1-177" data-name="Polygon 1" d="M6.215,0l6.215,6.63H0Z" transform="translate(906.736)" fill="#f5f5f5"/>
            <path id="Polygon_1-178" data-name="Polygon 1" d="M6.215,0l6.215,6.63H0Z" transform="translate(918.77)" fill="#f5f5f5"/>
            <path id="Polygon_1-179" data-name="Polygon 1" d="M6.215,0l6.215,6.63H0Z" transform="translate(930.372)" fill="#f5f5f5"/>
            <path id="Polygon_1-180" data-name="Polygon 1" d="M6.215,0l6.215,6.63H0Z" transform="translate(941.974)" fill="#f5f5f5"/>
            <path id="Polygon_1-181" data-name="Polygon 1" d="M6.215,0l6.215,6.63H0Z" transform="translate(953.576)" fill="#f5f5f5"/>
            <path id="Polygon_1-182" data-name="Polygon 1" d="M6.215,0l6.215,6.63H0Z" transform="translate(965.178)" fill="#f5f5f5"/>
            <path id="Polygon_1-183" data-name="Polygon 1" d="M6.215,0l6.215,6.63H0Z" transform="translate(976.78)" fill="#f5f5f5"/>
            <path id="Polygon_1-184" data-name="Polygon 1" d="M6.215,0l6.215,6.63H0Z" transform="translate(988.383)" fill="#f5f5f5"/>
            <path id="Polygon_1-185" data-name="Polygon 1" d="M6.215,0l6.215,6.63H0Z" transform="translate(999.985)" fill="#f5f5f5"/>
            <path id="Polygon_1-186" data-name="Polygon 1" d="M6.215,0l6.215,6.63H0Z" transform="translate(1011.587)" fill="#f5f5f5"/>
            <path id="Polygon_1-187" data-name="Polygon 1" d="M6.215,0l6.215,6.63H0Z" transform="translate(1023.189)" fill="#f5f5f5"/>
            <path id="Polygon_1-188" data-name="Polygon 1" d="M6.215,0l6.215,6.63H0Z" transform="translate(1034.791)" fill="#f5f5f5"/>
            <path id="Polygon_1-189" data-name="Polygon 1" d="M6.215,0l6.215,6.63H0Z" transform="translate(1046.394)" fill="#f5f5f5"/>
            <path id="Polygon_1-190" data-name="Polygon 1" d="M6.215,0l6.215,6.63H0Z" transform="translate(1057.996)" fill="#f5f5f5"/>
            <path id="Polygon_1-191" data-name="Polygon 1" d="M6.215,0l6.215,6.63H0Z" transform="translate(1069.598)" fill="#f5f5f5"/>
            <path id="Polygon_1-192" data-name="Polygon 1" d="M6.215,0l6.215,6.63H0Z" transform="translate(1081.2)" fill="#f5f5f5"/>
            <path id="Polygon_1-193" data-name="Polygon 1" d="M6.215,0l6.215,6.63H0Z" transform="translate(1092.802)" fill="#f5f5f5"/>
            <path id="Polygon_1-194" data-name="Polygon 1" d="M6.215,0l6.215,6.63H0Z" transform="translate(1104.404)" fill="#f5f5f5"/>
            <path id="Polygon_1-195" data-name="Polygon 1" d="M6.215,0l6.215,6.63H0Z" transform="translate(1116.006)" fill="#f5f5f5"/>
            <path id="Polygon_1-196" data-name="Polygon 1" d="M6.215,0l6.215,6.63H0Z" transform="translate(1127.608)" fill="#f5f5f5"/>
          </g>
          <rect id="Rectangle_56" data-name="Rectangle 56" width="1140.003" height="20.234" transform="translate(0 6.5)" fill="#f5f5f5"/>
        </g>
      </g>
      <path id="Polygon_3" data-name="Polygon 3" d="M10,0,20,9.5H0Z" transform="translate(925.5 549) rotate(90)" fill="#f5f5f5"/>
    </g>
    <path id="Polygon_4" data-name="Polygon 4" d="M10,0,20,9.5H0Z" transform="translate(683.5 579) rotate(-90)" fill="#f5f5f5"/>
  </g>
</svg>
