<svg xmlns="http://www.w3.org/2000/svg" width="42.551" height="45.174" viewBox="0 0 42.551 45.174">
  <g id="stats-2-violet" transform="translate(0.002)">
    <g id="Group_91" data-name="Group 91" transform="translate(3.379 1.341)">
      <path id="Path_57" data-name="Path 57" d="M64.686,121.926a36.817,36.817,0,0,1,9.809-2.5c.886-.1,4.547-2.709,4.569-2.724,2.406-1.764,4.273,5.226,4.273,5.226.022-.125.044-.251.066-.384a1.478,1.478,0,0,1,.03-.177c.207-1.358,1.041-3,1.033-4.377a7.8,7.8,0,0,0-.251-2.192c-1.594-4.687-5.432-3.144-5.432-3.144s-2.679-3.594-4.709-3.484h-.066v.007a1.578,1.578,0,0,0-.568.17c-5.255,2.827-5.949,2.473-7.13,2.878-2.856,1-2.93.731-2.576,2.93C64.325,117.837,64.576,120.524,64.686,121.926Z" transform="translate(-63.585 -108.166)" fill="#ab7be0" opacity="0.5"/>
      <path id="Path_58" data-name="Path 58" d="M343.825,221.005a30.234,30.234,0,0,1,8.082-2.059c.731-.081,3.742-2.229,3.764-2.244,1.978-1.454,3.521,4.3,3.521,4.3.015-.1.037-.207.052-.31.007-.044.015-.1.022-.148.17-1.115.856-2.473.849-3.6a6.268,6.268,0,0,0-.207-1.808c-1.314-3.86-4.473-2.591-4.473-2.591s-2.207-2.96-3.882-2.871h-.059v.007a1.171,1.171,0,0,0-.465.14c-4.325,2.325-4.9,2.037-5.875,2.377-2.354.819-2.414.6-2.118,2.414C343.53,217.639,343.729,219.846,343.825,221.005Z" transform="translate(-322.294 -202.182)" fill="#ab7be0" opacity="0.5"/>
    </g>
    <path id="Path_59" data-name="Path 59" d="M60.062,103.861c-1.137-3.343-3.572-3.705-4.569-3.705a4.628,4.628,0,0,0-.664.044c-.923-1.078-2.605-2.716-4.325-2.716h-.14a1.482,1.482,0,0,0-.31.037,2.7,2.7,0,0,0-.79.266A17.077,17.077,0,0,1,44.4,99.853a6.459,6.459,0,0,0-.819.214l-.2.066a8.463,8.463,0,0,0-.325-2.605c-1.262-3.727-3.838-4.281-5.255-4.281a5.769,5.769,0,0,0-.923.074C35.861,92.111,33.787,90,31.75,90h-.17a1.373,1.373,0,0,0-.31.037,2.806,2.806,0,0,0-.878.3c-3.875,2.081-5.137,2.354-5.978,2.539a8.448,8.448,0,0,0-.959.251c-.31.111-.59.2-.841.288-1.225.406-1.956.657-2.436,1.373-.509.775-.376,1.609-.185,2.76.435,2.65.753,5.218.945,7.632v1.668a10.619,10.619,0,0,0,2.746,7.137,10.916,10.916,0,0,0-5.882,9.971v9.875a1.343,1.343,0,0,0,1.343,1.343H51.1a1.343,1.343,0,1,0,0-2.687H41.477V125.7a6.309,6.309,0,0,1,4.3-6.325,8.935,8.935,0,0,0,4.62,1.277,9.036,9.036,0,0,0,9.027-9.027V110.23a1.145,1.145,0,0,1,.03-.155l.022-.155a10.294,10.294,0,0,1,.347-1.277,8.733,8.733,0,0,0,.524-2.539,7.506,7.506,0,0,0-.285-2.243Zm-16.3-1c.214-.074.45-.148.716-.244.148-.052.3-.081.509-.133.871-.192,2.059-.45,5.536-2.318.509.015,1.823,1.144,2.716,2.332a1.3,1.3,0,0,0,1.572.45,2.429,2.429,0,0,1,.686-.1c.34,0,1.38,0,2.022,1.882a3.921,3.921,0,0,1,.133,1.085,3.114,3.114,0,0,0-2.45-1.535,2.445,2.445,0,0,0-1.432.487,23.806,23.806,0,0,1-3.2,2,32.361,32.361,0,0,0-6.687,1.506c-.162-1.528-.376-3.115-.642-4.731-.022-.148-.052-.325-.074-.48Zm-20.319.162c-.2-1.9-.458-3.89-.79-5.912-.044-.258-.1-.59-.118-.819.229-.1.59-.214.937-.332.258-.089.546-.185.871-.3a6.25,6.25,0,0,1,.65-.17c1.041-.229,2.473-.539,6.68-2.8.007-.007.022-.015.059-.015h.03c.79,0,2.495,1.55,3.535,2.945a1.319,1.319,0,0,0,1.572.45,2.939,2.939,0,0,1,.937-.148c1.269,0,2.155.812,2.724,2.473a6.051,6.051,0,0,1,.185,1.764,3.393,3.393,0,0,1-.059.583c-.945-1.69-2-2.509-3.2-2.509a2.647,2.647,0,0,0-1.572.539,28.017,28.017,0,0,1-3.978,2.48,38.753,38.753,0,0,0-8.37,1.919Zm.185,3.823V106a36.648,36.648,0,0,1,8.606-2.074c1.351-.148,5-2.812,5.211-2.974a5.053,5.053,0,0,1,1.365,2.155,21.059,21.059,0,0,1,.782,2.207v1.52a7.983,7.983,0,1,1-15.965.007Zm15.16,18.843v6.79H20.494v-8.532c0-3.912,2.207-7.049,5.55-7.993a10.662,10.662,0,0,0,15.322-4.775v.428a8.973,8.973,0,0,0,2.126,5.809,9.228,9.228,0,0,0-4.708,8.277Zm11.61-7.75a6.344,6.344,0,0,1-6.34-6.34v-.524a29.49,29.49,0,0,1,6.879-1.639c1.063-.118,3.609-1.919,4.266-2.384a9.84,9.84,0,0,1,1.535,3.329V111.6a6.344,6.344,0,0,1-6.345,6.344Z" transform="translate(-17.8 -90)" fill="#ab7be0"/>
  </g>
</svg>
