<svg id="stats-3" xmlns="http://www.w3.org/2000/svg" width="45.17" height="45.17" viewBox="0 0 45.17 45.17">
  <path id="Path_60" data-name="Path 60" d="M22.585,135.17a22.587,22.587,0,1,1,20.43-32.224,22.353,22.353,0,0,1,2.155,9.639c0,.148,0,.3-.007.435v.015a22.407,22.407,0,0,1-1.461,7.573c-.236.613-.5,1.233-.8,1.838,0,.007-.007.007-.007.015l-.015.03a22.493,22.493,0,0,1-3.233,4.879,1.266,1.266,0,0,1-1.912-1.661,20.124,20.124,0,0,0,2.871-4.34l.015-.037c.258-.539.495-1.085.7-1.624a19.783,19.783,0,0,0,1.3-6.716v-.03c0-.125.007-.258.007-.384a19.87,19.87,0,0,0-1.912-8.554A20.147,20.147,0,0,0,22.585,92.539a20.751,20.751,0,0,0-2.952.214A20.175,20.175,0,0,0,4.192,104.592,20.062,20.062,0,0,0,30.94,130.816,1.27,1.27,0,1,1,32,133.126,22.4,22.4,0,0,1,22.585,135.17Z" transform="translate(0 -90)" fill="#fd8a06"/>
  <path id="Path_61" data-name="Path 61" d="M466.75,281.893c0,.14,0,.28-.007.421v.007a21.277,21.277,0,0,1-1.38,7.152c-.221.59-.472,1.166-.753,1.734-.007.007-.007.022-.015.03a7.395,7.395,0,0,1-4.34-5.093l-1.343-5.595a1.214,1.214,0,0,0-.546-.745l-1.24-.76a1.209,1.209,0,0,1-.576-1.129l.1-1.078a1.4,1.4,0,0,1,.495-.952l3.019-2.546a1.409,1.409,0,0,1,1.026-.325l3.513-.214A20.958,20.958,0,0,1,466.75,281.893Z" transform="translate(-422.849 -259.308)" fill="#fd8a06" opacity="0.5"/>
  <path id="Path_62" data-name="Path 62" d="M448.789,276.55a1.246,1.246,0,0,1-.487-.1,8.635,8.635,0,0,1-5.085-5.964l-1.343-5.572-1.218-.745a2.462,2.462,0,0,1-1.174-2.325l.1-1.078a2.681,2.681,0,0,1,.945-1.816l3.019-2.539a2.686,2.686,0,0,1,1.845-.627l3.439-.214a1.28,1.28,0,0,1,1.225.723,22.353,22.353,0,0,1,2.155,9.639c0,.148,0,.3-.007.435v.015a22.406,22.406,0,0,1-1.461,7.573c-.236.613-.5,1.233-.8,1.838,0,.007-.007.007-.007.015l-.015.037A1.261,1.261,0,0,1,448.789,276.55Zm-6.768-14.518,1.2.738a2.489,2.489,0,0,1,1.114,1.528l1.343,5.595a6.107,6.107,0,0,0,1.535,2.8,5.983,5.983,0,0,0,.967.819c.059-.155.125-.3.177-.458a19.782,19.782,0,0,0,1.3-6.716v-.03c0-.125.007-.258.007-.384a19.847,19.847,0,0,0-1.565-7.779l-2.642.162a1.538,1.538,0,0,1-.185,0h-.015a.157.157,0,0,0-.089.03l-3.019,2.546a.154.154,0,0,0-.052.1Z" transform="translate(-407.036 -243.351)" fill="#fd8a06"/>
  <path id="Path_63" data-name="Path 63" d="M62.7,133s-2.436,6.7-3.528,9.7a2.143,2.143,0,0,1-2.015,1.41H57.13a2.135,2.135,0,0,1-2.008-1.461l-2.8-8.37a1.315,1.315,0,0,0-.236-.421,1.163,1.163,0,0,0-.384-.3c-.812-.406-1.469-2.089-1.469-2.089l-.3-2.443a6.626,6.626,0,0,0-.561-1.993,6.862,6.862,0,0,0-1.137-1.727,6.711,6.711,0,0,0-3.351-2.008l-.369-.1a.526.526,0,0,1-.347-.731,21.322,21.322,0,0,1,16.09-11.994.089.089,0,0,1,.1.052l1.587,3.174a1.2,1.2,0,0,1,.133.554v.251a1.232,1.232,0,0,1-.59,1.055l-1.019.62a1.212,1.212,0,0,0-.546.731l-1.3,4.761a1.3,1.3,0,0,1-1.255.959,1.278,1.278,0,0,1-.472-.089l-.76-.288a3.81,3.81,0,0,0-2.14.118,2.207,2.207,0,0,0-1.639,2.126,2.3,2.3,0,0,0,.155.819,2.187,2.187,0,0,0,1.417,1.292c.864.258,1.616,2.222,3.993,2.222,0,0,4.192-.531,4.761.768A4.648,4.648,0,0,1,62.7,133Z" transform="translate(-40.87 -108.969)" fill="#fd8a06" opacity="0.5"/>
  <path id="Path_64" data-name="Path 64" d="M41.166,129.281h-.022a3.418,3.418,0,0,1-3.211-2.325l-2.79-8.362a5.564,5.564,0,0,1-2.074-2.76,1.6,1.6,0,0,1-.081-.31l-.3-2.443a5.607,5.607,0,0,0-.45-1.616,5.7,5.7,0,0,0-.923-1.4A5.468,5.468,0,0,0,28.6,108.43l-.369-.1a1.8,1.8,0,0,1-1.188-2.509A22.541,22.541,0,0,1,44.1,93.115a1.811,1.811,0,0,1,.2-.015,1.36,1.36,0,0,1,1.218.753L47.1,97.027a2.535,2.535,0,0,1,.266,1.122V98.4a2.508,2.508,0,0,1-1.2,2.14l-1,.613-1.3,4.761a2.6,2.6,0,0,1-.923,1.373,2.571,2.571,0,0,1-1.557.524,2.481,2.481,0,0,1-.93-.177l-.745-.28a.782.782,0,0,0-.258-.03,4.221,4.221,0,0,0-1.107.185.933.933,0,0,0-.627,1.247.919.919,0,0,0,.6.546,3.517,3.517,0,0,1,1.439,1.019,2.972,2.972,0,0,0,2.126,1.151,17.59,17.59,0,0,1,1.9-.111c1.447,0,3.439.17,4.089,1.631a5.812,5.812,0,0,1,.044,4.347s-2.436,6.7-3.528,9.706A3.45,3.45,0,0,1,41.166,129.281Zm-4.879-12.953a2.426,2.426,0,0,1,.768.6,2.7,2.7,0,0,1,.487.849l2.8,8.37a.881.881,0,0,0,.819.6h.015a.885.885,0,0,0,.827-.576c1.092-3,3.528-9.7,3.528-9.7a3.357,3.357,0,0,0,.066-2.332,4.565,4.565,0,0,0-1.816-.236,15.834,15.834,0,0,0-1.675.1,1.144,1.144,0,0,1-.162.007,5.351,5.351,0,0,1-3.993-1.9,4.553,4.553,0,0,0-.421-.391,3.466,3.466,0,0,1,.148-6.657,7.006,7.006,0,0,1,1.764-.273,3.3,3.3,0,0,1,1.151.192l.782.3c.015,0,.015-.007.022-.007a.057.057,0,0,0,.015-.022l1.3-4.761A2.5,2.5,0,0,1,43.823,99l1-.613v-.229l-1.188-2.384a20.009,20.009,0,0,0-13.9,10.348,7.968,7.968,0,0,1,3.462,2.236,8.1,8.1,0,0,1,1.351,2.052,8,8,0,0,1,.664,2.362l.273,2.273A3.965,3.965,0,0,0,36.287,116.327Z" transform="translate(-24.891 -92.871)" fill="#fd8a06"/>
</svg>
