<svg xmlns="http://www.w3.org/2000/svg" width="49.828" height="39.709" viewBox="0 0 49.828 39.709">
  <g id="table-sea" transform="translate(0)">
    <path id="Path_25" data-name="Path 25" d="M282.642,173.108a2.271,2.271,0,0,1-4.542,0c0-1.872,1.644-4.209,2.271-4.209C281.031,168.892,282.642,171.236,282.642,173.108Z" transform="translate(-255.462 -167.532)" fill="#51acad" opacity="0.5"/>
    <g id="Group_21" data-name="Group 21" transform="translate(10.672)">
      <path id="Path_26" data-name="Path 26" d="M265.031,161.307a3.634,3.634,0,0,1-3.631-3.631,7.282,7.282,0,0,1,1.091-3.508c.822-1.376,1.677-2.068,2.54-2.068,1.872,0,3.631,3.476,3.631,5.576a3.634,3.634,0,0,1-3.631,3.631Zm.008-6.065a4.989,4.989,0,0,0-.912,2.434.9.9,0,1,0,1.807,0A4.961,4.961,0,0,0,265.039,155.242Z" transform="translate(-250.793 -152.1)" fill="#51acad"/>
      <path id="Path_27" data-name="Path 27" d="M261.883,253.214h-3.818a2.164,2.164,0,0,1-2.165-2.165v-5.283a2.164,2.164,0,0,1,2.165-2.165h3.818a2.164,2.164,0,0,1,2.165,2.165v5.283A2.164,2.164,0,0,1,261.883,253.214Zm-3.248-2.727h2.694v-4.168h-2.694Z" transform="translate(-245.741 -236.152)" fill="#51acad"/>
      <path id="Path_28" data-name="Path 28" d="M158.215,331.319H132.459a1.359,1.359,0,1,1,0-2.719h25.764a1.36,1.36,0,0,1-.008,2.719Z" transform="translate(-131.1 -314.232)" fill="#51acad"/>
      <path id="Path_29" data-name="Path 29" d="M400.259,491.271a1.362,1.362,0,0,1-1.359-1.359V479.459a1.359,1.359,0,0,1,2.719,0v10.452a1.362,1.362,0,0,1-1.36,1.36Z" transform="translate(-377.1 -451.563)" fill="#51acad"/>
      <path id="Path_30" data-name="Path 30" d="M181.059,337.992a1.362,1.362,0,0,1-1.359-1.359V329.86a1.362,1.362,0,0,1,1.359-1.359H198.9a1.362,1.362,0,0,1,1.359,1.359v6.5a1.359,1.359,0,0,1-2.719,0v-5.128H182.419v5.4a1.357,1.357,0,0,1-1.36,1.355Z" transform="translate(-175.744 -314.14)" fill="#51acad"/>
      <path id="Path_31" data-name="Path 31" d="M181.059,492.282a1.362,1.362,0,0,1-1.359-1.359V480.559a1.359,1.359,0,0,1,2.719,0v10.354a1.358,1.358,0,0,1-1.36,1.369Z" transform="translate(-175.744 -452.573)" fill="#51acad"/>
    </g>
    <path id="Path_32" data-name="Path 32" d="M533.754,205.7H528.3V185.725a2.826,2.826,0,0,1,2.825-2.825h0a2.619,2.619,0,0,1,2.621,2.621V205.7Z" transform="translate(-485.295 -180.393)" fill="#51acad" opacity="0.5"/>
    <g id="Group_22" data-name="Group 22" transform="translate(38.17 1.14)">
      <path id="Path_33" data-name="Path 33" d="M518.413,191.628h-5.454a1.362,1.362,0,0,1-1.359-1.359V170.292a4.2,4.2,0,0,1,4.192-4.192,4,4,0,0,1,3.989,3.989v20.188a1.372,1.372,0,0,1-1.368,1.351Zm-4.095-2.719h2.727V170.081a1.263,1.263,0,0,0-1.262-1.262,1.47,1.47,0,0,0-1.465,1.465Z" transform="translate(-508.124 -166.1)" fill="#51acad"/>
      <path id="Path_34" data-name="Path 34" d="M479.189,449.019h-8.93a1.359,1.359,0,0,1,0-2.719h8.93a1.359,1.359,0,0,1,0,2.719Z" transform="translate(-468.9 -423.491)" fill="#51acad"/>
      <path id="Path_35" data-name="Path 35" d="M579.959,376.906a1.362,1.362,0,0,1-1.359-1.359V354.959a1.359,1.359,0,0,1,2.719,0v20.579a1.364,1.364,0,0,1-1.36,1.368Z" transform="translate(-569.67 -338.337)" fill="#51acad"/>
      <path id="Path_36" data-name="Path 36" d="M470.259,462.06a1.362,1.362,0,0,1-1.359-1.36V447.659a1.359,1.359,0,0,1,2.719,0V460.7a1.362,1.362,0,0,1-1.36,1.36Z" transform="translate(-468.9 -423.491)" fill="#51acad"/>
    </g>
    <path id="Path_37" data-name="Path 37" d="M16.7,205.7h5.454V185.725a2.826,2.826,0,0,0-2.825-2.825h0a2.619,2.619,0,0,0-2.621,2.621C16.7,185.513,16.7,205.7,16.7,205.7Z" transform="translate(-15.341 -180.393)" fill="#51acad" opacity="0.5"/>
    <g id="Group_23" data-name="Group 23" transform="translate(0 1.132)">
      <path id="Path_38" data-name="Path 38" d="M6.813,191.536H1.359A1.362,1.362,0,0,1,0,190.177V169.989A4,4,0,0,1,3.989,166a4.2,4.2,0,0,1,4.192,4.192v19.985a1.364,1.364,0,0,1-1.368,1.359Zm-4.086-2.719H5.454V170.2a1.47,1.47,0,0,0-1.465-1.465A1.263,1.263,0,0,0,2.727,170Z" transform="translate(0 -166)" fill="#51acad"/>
      <path id="Path_39" data-name="Path 39" d="M10.289,449.019H1.359a1.359,1.359,0,0,1,0-2.719h8.93a1.359,1.359,0,1,1,0,2.719Z" transform="translate(0 -423.483)" fill="#51acad"/>
      <path id="Path_40" data-name="Path 40" d="M1.359,376.906A1.362,1.362,0,0,1,0,375.546V354.959a1.36,1.36,0,0,1,2.719,0v20.579a1.353,1.353,0,0,1-1.36,1.368Z" transform="translate(0 -338.329)" fill="#51acad"/>
      <path id="Path_41" data-name="Path 41" d="M111.059,462.06a1.362,1.362,0,0,1-1.359-1.36V447.659a1.359,1.359,0,1,1,2.719,0V460.7a1.351,1.351,0,0,1-1.36,1.36Z" transform="translate(-100.77 -423.483)" fill="#51acad"/>
    </g>
  </g>
</svg>
