<svg id="wallet-blue" xmlns="http://www.w3.org/2000/svg" width="42.595" height="34.979" viewBox="0 0 42.595 34.979">
  <path id="SVGCleanerId_0" d="M339.526,315.775H328.688a6.488,6.488,0,1,1,0-12.975h10.831a2.851,2.851,0,0,1,2.847,2.847v7.281a2.84,2.84,0,0,1-2.84,2.847Zm-10.838-10.553a4.065,4.065,0,1,0,0,8.131h10.831a.422.422,0,0,0,.425-.425v-7.281a.422.422,0,0,0-.425-.425Z" transform="translate(-299.771 -291.795)" fill="#2b90d9"/>
  <g id="Group_24" data-name="Group 24">
    <path id="Path_42" data-name="Path 42" d="M36.553,179.679H4.9A4.9,4.9,0,0,1,0,174.786V149.6a4.908,4.908,0,0,1,4.9-4.9H36.56a4.908,4.908,0,0,1,4.9,4.9v2.234a1.211,1.211,0,0,1-2.422,0V149.6a2.484,2.484,0,0,0-2.478-2.478H4.9A2.484,2.484,0,0,0,2.422,149.6v25.178A2.484,2.484,0,0,0,4.9,177.257H36.56a2.484,2.484,0,0,0,2.478-2.478v-2.416a1.211,1.211,0,1,1,2.422,0v2.416a4.914,4.914,0,0,1-4.907,4.9Z" transform="translate(0 -144.7)" fill="#2b90d9"/>
    <path id="Path_43" data-name="Path 43" d="M392.122,381.022h-1.211a1.211,1.211,0,0,1,0-2.422h1.211a1.211,1.211,0,0,1,0,2.422Z" transform="translate(-362.573 -362.318)" fill="#2b90d9"/>
  </g>
  <g id="Group_25" data-name="Group 25" transform="translate(22.429 11.005)">
    <path id="SVGCleanerId_0_1_" d="M339.526,315.775H328.688a6.488,6.488,0,1,1,0-12.975h10.831a2.851,2.851,0,0,1,2.847,2.847v7.281a2.84,2.84,0,0,1-2.84,2.847Zm-10.838-10.553a4.065,4.065,0,1,0,0,8.131h10.831a.422.422,0,0,0,.425-.425v-7.281a.422.422,0,0,0-.425-.425Z" transform="translate(-322.2 -302.8)" fill="#2b90d9"/>
  </g>
  <path id="Path_44" data-name="Path 44" d="M142.238,280.884a5.273,5.273,0,0,1-5.276-5.277h0a5.273,5.273,0,0,1,5.276-5.276H146.3v-2.624a1.105,1.105,0,0,0-1.107-1.107H122.907a1.105,1.105,0,0,0-1.107,1.107v15.809a1.105,1.105,0,0,0,1.107,1.107h22.282a1.1,1.1,0,0,0,1.107-1.107v-2.624l-4.058-.007Z" transform="translate(-113.321 -258.115)" fill="#2b90d9" opacity="0.5"/>
  <path id="Path_45" data-name="Path 45" d="M129,269.638H106.718a2.317,2.317,0,0,1-2.318-2.318v-15.8a2.317,2.317,0,0,1,2.318-2.318H129a2.317,2.317,0,0,1,2.318,2.318v2.624a1.212,1.212,0,0,1-1.211,1.211h-4.058a4.065,4.065,0,1,0,0,8.131h4.058a1.212,1.212,0,0,1,1.211,1.211v2.624A2.317,2.317,0,0,1,129,269.638Zm-22.178-2.416H128.9v-1.309h-2.847a6.488,6.488,0,1,1,0-12.975H128.9v-1.309H106.822Z" transform="translate(-97.133 -241.926)" fill="#2b90d9"/>
</svg>
